<?xml version="1.0" encoding="utf-8"?>
<!-- Generator: Adobe Illustrator 25.2.1, SVG Export Plug-In . SVG Version: 6.00 Build 0)  -->
<svg version="1.1" id="Layer_1" xmlns="http://www.w3.org/2000/svg" xmlns:xlink="http://www.w3.org/1999/xlink" x="0px" y="0px"
	 viewBox="0 0 721 328" style="enable-background:new 0 0 721 328;" xml:space="preserve">
<style type="text/css">
	.st0{fill-rule:evenodd;clip-rule:evenodd;fill:#111111;}
</style>
<g>
	<path class="st0" d="M95.73,261.35h14.58v-77.88H95.73V261.35z M149.17,260.18h13.06v-49.14l54.96,50.31v-76.71h-13.02v48.3
		l-55-49.47V260.18z M246.99,241.32c7.11,5.54,15.64,8.74,24.78,8.74c8.91,0,15.16-3.07,15.16-9.84c0-5.9-3.99-8.21-10.96-10.8
		l-11.3-3.92c-10.42-3.7-18.34-9.1-18.34-21.52c0-13.28,11.99-20.5,26.33-20.5c8.79,0,16.79,2.21,23.05,6.12v13.17
		c-6.5-4.81-13.62-8.12-22.77-8.12c-7.87,0-13.76,2.94-13.76,9.07c0,5.54,3.69,7.75,10.2,9.98l12.59,4.42
		c12.2,4.29,17.8,10.94,17.8,21.88c0,13.76-12.11,21.36-27.99,21.36c-10.44,0-19.32-2.92-24.78-6.61
		C246.99,254.74,246.99,241.32,246.99,241.32z M333.78,261.35h14.57v-77.88h-14.57V261.35z M416.72,249.57
		c16.43,0,25.21-10.54,25.21-27.17c0-16.76-8.79-27.26-25.21-27.26h-16.25v54.43C400.47,249.57,416.72,249.57,416.72,249.57z
		 M387.21,183.47h30c23.09,0,38.02,15.21,38.02,38.92c0,23.73-14.93,38.96-38.02,38.96h-30V183.47z M528.11,183.47v11.66h-35.27
		v18.74h31.63v11.53h-31.64v24.16h35.28v11.79h-48.58v-77.88H528.11z M579.84,218.74h14.46c8.56,0,13.39-4.7,13.39-11.92
		c0-7.22-4.82-11.93-13.39-11.93h-14.46V218.74L579.84,218.74z M579.84,229.75v31.6h-12.87v-77.88h27.57
		c15.72,0,25.9,8.1,25.9,23.35c0,13.04-5.65,20.53-17.68,22.45l27.36,32.08h-14.64L589,229.75L579.84,229.75L579.84,229.75z
		 M90.64,106.75c5.7-2.09,10.14-8.35,10.14-16.96c0-14.35-10.14-21.78-26.37-21.78H47.15v80.09h29.79
		c16.23,0,26.37-7.96,26.37-22.96C103.31,116.66,97.99,109.22,90.64,106.75z M59.95,101.66V79.75h14.34
		c9.01,0,13.82,3.26,13.82,10.82c0,7.56-4.82,11.09-13.82,11.09C74.29,101.66,59.95,101.66,59.95,101.66z M59.95,112.88h16.73
		c8.88,0,13.7,4.43,13.7,11.74c0,7.17-4.82,11.74-13.69,11.74H59.96L59.95,112.88L59.95,112.88z M162.79,149.4
		c18.64,0,31.19-11.22,31.19-33.13V68.01h-13.19v46.69c0,15.39-6.34,22.57-18,22.57c-11.66,0-18-7.18-18-22.57V68.01H131.6v48.13
		C131.6,138.18,144.28,149.4,162.79,149.4z M225.02,142.35c5.45,3.92,14.33,7.05,24.72,7.05c15.85,0,27.89-8.09,27.89-22.7
		c0-11.61-5.57-18.65-17.75-23.22l-12.55-4.7c-6.47-2.34-10.14-4.69-10.14-10.56c0-6.52,5.83-9.65,13.69-9.65
		c9.13,0,16.23,3.52,22.7,8.61V73.22c-6.21-4.17-14.2-6.52-22.95-6.52c-14.32,0-26.24,7.7-26.24,21.78
		c0,13.17,7.86,18.91,18.25,22.82l11.29,4.17c6.97,2.74,10.9,5.22,10.9,11.48c0,7.17-6.21,10.43-15.09,10.43
		c-9.13,0-17.62-3.4-24.72-9.26C225.02,128.14,225.02,142.35,225.02,142.35z M324.74,68.01h-13.18v80.08h13.18V68.01z
		 M362.36,147.99h12.7v-52.1l53.47,53.34V67.88h-12.67v51.21l-53.51-52.45C362.36,66.65,362.36,147.99,362.36,147.99z M510.92,68.02
		v11.99h-34.23v19.28h30.7v11.86h-30.7v24.84h34.23v12.12h-47.15V68.02H510.92z M541.62,142.3c5.45,3.92,14.32,7.05,24.72,7.05
		c15.84,0,27.89-8.09,27.89-22.7c0-11.61-5.58-18.65-17.75-23.22l-12.55-4.69c-6.47-2.35-10.14-4.7-10.14-10.57
		c0-6.52,5.83-9.65,13.69-9.65c9.13,0,16.23,3.52,22.7,8.61V73.17c-6.21-4.17-14.2-6.52-22.95-6.52c-14.32,0-26.24,7.7-26.24,21.78
		c0,13.17,7.86,18.91,18.25,22.82l11.29,4.17c6.97,2.74,10.9,5.22,10.9,11.48c0,7.17-6.21,10.43-15.09,10.43
		c-9.13,0-17.62-3.39-24.72-9.26C541.62,128.08,541.62,142.3,541.62,142.3z M621.24,142.3c5.45,3.92,14.33,7.05,24.72,7.05
		c15.85,0,27.89-8.09,27.89-22.7c0-11.61-5.58-18.65-17.75-23.22l-12.55-4.69c-6.46-2.35-10.14-4.7-10.14-10.57
		c0-6.52,5.84-9.65,13.69-9.65c9.13,0,16.23,3.52,22.7,8.61V73.17c-6.21-4.17-14.2-6.52-22.94-6.52c-14.33,0-26.24,7.7-26.24,21.78
		c0,13.17,7.86,18.91,18.25,22.82l11.29,4.17c6.97,2.74,10.9,5.22,10.9,11.48c0,7.17-6.21,10.43-15.09,10.43
		c-9.13,0-17.62-3.39-24.72-9.26C621.24,128.08,621.24,142.3,621.24,142.3z"/>
</g>
</svg>
