<?xml version="1.0" encoding="utf-8"?>
<!-- Generator: Adobe Illustrator 25.2.1, SVG Export Plug-In . SVG Version: 6.00 Build 0)  -->
<svg version="1.1" id="Layer_1" xmlns="http://www.w3.org/2000/svg" xmlns:xlink="http://www.w3.org/1999/xlink" x="0px" y="0px"
	 viewBox="0 0 721 328" style="enable-background:new 0 0 721 328;" xml:space="preserve">
<style type="text/css">
	.st0{fill-rule:evenodd;clip-rule:evenodd;fill:#111111;}
</style>
<g>
	<path d="M250.53,250.8c-1.25-6.04-6.21-7.65-11.77-8.17c-17.94-1.66-21.12,11.74-21.12,17.4c0,9.67,2.83,17.68,20.44,17.68
		c3.25,0,12.22-3.34,12.22-8.77h25.33c-1.03,16.1-28.11,19.96-39.93,19.96c-24.48,0-45.44-4.56-44.42-28.65
		c0.72-17.2,16.98-29.27,49.34-28.52c18.03,0.43,35.36,6.03,35.43,19.07L250.53,250.8L250.53,250.8z M504.22,250.8
		c-1.24-6.04-6.21-7.65-11.76-8.17c-17.94-1.66-21.12,11.74-21.12,17.4c0,9.67,2.82,17.68,20.44,17.68c3.25,0,12.21-3.34,12.21-8.77
		h25.33c-1.03,16.1-28.1,19.96-39.93,19.96c-24.48,0-45.43-4.56-44.42-28.65c0.72-17.2,16.99-29.27,49.34-28.52
		c18.03,0.43,35.35,6.03,35.43,19.07L504.22,250.8L504.22,250.8z M280.58,232.89h32.88l28.06,39.3h0.22v-39.3h21.08v54.57h-31.5
		l-29.43-39.31h-0.22v39.31h-21.08V232.89z M369.32,232.89h39.94c19.2,0,30.49,5.35,30.49,13.45c0,4.78-4.73,10.68-15.26,12.42v0.16
		c12.69,0.76,17.37,8.77,17.37,13.57c0,9.62-11,14.98-32.47,14.98h-40.05V232.89z M392.44,254.09h6.63c10.2,0,15.61-0.8,15.61-5.02
		c0-4.54-4.51-6.04-13.69-6.04h-8.56L392.44,254.09L392.44,254.09z M392.44,276.02h6.63c12.29,0,16.8-1.29,16.8-5.52
		c0-4.54-5.69-6.05-14.87-6.05h-8.56V276.02L392.44,276.02z"/>
	<path d="M294.07,104.95l45.87,104.9l-94.63-64.8c-23.74-15.71-18.93-42.66-5.77-54.53C258.15,74.8,284.45,80.26,294.07,104.95
		L294.07,104.95z"/>
	<path d="M356.94,80.26l-16.68,117.4L292.79,86.04c-10.26-27.91,12.82-46.19,28.23-46.51C338.67,37.59,360.79,51.07,356.94,80.26z"
		/>
	<path d="M429.12,85.72l-47.15,111.95L366.89,96.62c-1.29-15.39,8.34-15.71,11.87-18.6c-0.64-2.25-5.45-2.25-5.45-2.25h-8.98
		c-0.96-26.31,19.57-37.85,36.25-36.57C418.54,39.84,438.74,60.69,429.12,85.72L429.12,85.72z"/>
	<path d="M477.24,144.41l-94.63,65.13l44.58-103.62c13.47-32.72,44.91-26.31,56.13-13.79C495.52,104.31,499.05,129.02,477.24,144.41
		z"/>
	<path d="M487.18,221.08H377.8l88.85-61.92c21.82-14.43,44.91-1.28,51,17.64C524.07,197.99,509.63,221.08,487.18,221.08z"/>
	<path d="M203.93,175.53c8.34-21.82,31.44-29.52,51.96-16.36l88.86,61.92H236.97C214.52,221.08,196.88,200.55,203.93,175.53
		L203.93,175.53z"/>
</g>
</svg>
