<?xml version="1.0" encoding="utf-8"?>
<!-- Generator: Adobe Illustrator 25.2.1, SVG Export Plug-In . SVG Version: 6.00 Build 0)  -->
<svg version="1.1" id="Layer_1" xmlns="http://www.w3.org/2000/svg" xmlns:xlink="http://www.w3.org/1999/xlink" x="0px" y="0px"
	 viewBox="0 0 721 328" style="enable-background:new 0 0 721 328;" xml:space="preserve">
<style type="text/css">
	.st0{fill-rule:evenodd;clip-rule:evenodd;fill:#111111;}
</style>
<g>
	<path d="M433.25,128c-10.72,0-19.14,2.3-27.57,6.89c0-24.51,0-46.71,0.77-54.37l-51.32,9.19v4.6l5.36,0.77
		c6.89,1.53,9.19,5.36,10.71,14.55c1.54,18.38,0.77,116.41,0,132.49c13.79,3.06,28.34,5.36,42.9,5.36c40.59,0,65.1-25.28,65.1-65.1
		C479.2,150.98,459.29,128,433.25,128L433.25,128z M415.63,239.05c-3.06,0-6.9,0-9.19-0.76c-0.77-10.72-1.53-55.91-0.77-95.73
		c4.6-1.53,7.66-2.3,11.49-2.3c16.86,0,26.05,19.91,26.05,44.41C443.21,215.31,431.72,239.05,415.63,239.05L415.63,239.05z
		 M162.13,83.58H27.34v6.89L35,91.24c9.95,1.53,13.79,7.66,15.31,22.21c2.3,27.57,1.53,77.36,0,101.09
		c-1.53,14.55-5.36,21.45-15.31,22.21l-7.66,1.54v6.13h86.54v-6.13l-9.19-1.54c-9.96-0.76-13.79-7.65-15.32-22.21
		c-0.77-9.96-1.53-26.04-1.53-45.95l18.38,0.77c11.49,0,16.85,9.19,19.15,22.21h6.89v-54.36h-6.89
		c-2.3,13.02-7.66,22.21-19.15,22.21l-18.38,0.77c0-26.04,0.77-50.55,1.53-65.1h26.8c20.68,0,31.41,13.02,39.06,36l7.66-2.3
		L162.13,83.58L162.13,83.58z"/>
	<path d="M205.79,126.47c38.3,0,57.44,26.04,57.44,60.5c0,32.93-21.45,60.51-59.74,60.51c-38.29,0-57.44-26.04-57.44-60.51
		C146.05,154.04,167.49,126.47,205.79,126.47L205.79,126.47z M203.49,134.13c-16.85,0-21.45,22.98-21.45,52.84
		c0,29.1,7.66,52.84,22.98,52.84c17.6,0,22.21-22.98,22.21-52.84C227.23,157.87,219.58,134.13,203.49,134.13z M489.15,187.74
		c0-31.4,19.91-61.27,58.97-61.27c32.16,0,47.48,23.75,47.48,55.14h-71.23c-0.77,28.34,13.02,49.02,40.59,49.02
		c12.26,0,18.38-3.06,26.05-8.42l3.06,3.83c-7.66,10.72-24.51,21.45-45.95,21.45C513.66,247.48,489.15,222.97,489.15,187.74
		L489.15,187.74z M524.38,173.19l36-0.77c0-15.32-2.3-38.29-15.32-38.29C532.04,134.13,525.14,155.57,524.38,173.19z M686.76,132.6
		c-9.19-3.83-21.44-6.13-35.23-6.13c-28.33,0-45.96,16.85-45.96,36.76s13.01,28.34,31.41,34.47c19.14,6.89,24.51,12.25,24.51,21.44
		s-6.89,17.61-19.15,17.61c-14.55,0-25.28-8.42-33.7-31.4l-5.36,1.54l0.77,33.7c9.19,3.83,26.04,6.89,40.59,6.89
		c29.87,0,49.02-15.32,49.02-39.06c0-16.09-8.43-25.27-28.34-32.94c-21.45-8.42-29.1-13.78-29.1-23.74c0-9.96,6.9-16.85,16.09-16.85
		c13.78,0,22.97,8.43,29.87,29.11l5.36-1.53L686.76,132.6L686.76,132.6z M362.79,129.53c-13.02-7.65-36-3.83-48.25,23.75l0.76-26.81
		L264,136.43v4.6l5.36,0.77c6.9,0.77,9.96,4.6,10.72,14.55c1.53,18.38,0.77,50.55,0,66.63c-0.77,9.18-3.83,13.78-10.72,14.55
		l-5.36,0.77v6.13h71.22v-6.13l-9.19-0.77c-7.66-0.77-9.96-5.36-10.72-14.55c-1.53-14.55-1.53-43.66-0.76-62.04
		c3.83-5.36,20.68-9.96,35.99,0L362.79,129.53L362.79,129.53z"/>
</g>
</svg>
